<?xml version="1.0" encoding="UTF-8"?>
<svg xmlns="http://www.w3.org/2000/svg" height="20px" width="19px" viewBox="0 0 1000 928.571" enable-background="new 0 0 1000 928.571" xml:space="preserve">
    <path fill="#78B2F2" d="M326.43 548.578l-260.028 260.028q-5.58 5.58 -12.834 5.58t-12.834 -5.58l-27.9 -27.9q-5.58 -5.58 -5.58 -12.834t5.58 -12.834l219.294 -219.294 -219.294 -219.294q-5.58 -5.58 -5.58 -12.834t5.58 -12.834l27.9 -27.9q5.58 -5.58 12.834 -5.58t12.834 5.58l260.028 260.028q5.58 5.58 5.58 12.834t-5.58 12.834zm602.082 255.006v35.712q0 7.812 -5.022 12.834t-12.834 5.022h-535.68q-7.812 0 -12.834 -5.022t-5.022 -12.834v-35.712q0 -7.812 5.022 -12.834t12.834 -5.022h535.68q7.812 0 12.834 5.022t5.022 12.834z"/>
</svg>
