<svg width="24"
     height="48"
     xmlns="http://www.w3.org/2000/svg"
     xmlns:svg="http://www.w3.org/2000/svg">

    <title>Brackets Shell Icon</title>
    <g>
        <g id="closed">
            <path d="m2.72875,4.01818c-0.16159,0.04035 -0.33004,0.15059 -0.4593,0.29855c-0.27694,0.32543 -0.34389,0.76387 -0.18464,1.21308c0.04617,0.12638 0.33698,0.47607 2.66108,3.18731l2.61031,3.04748l-2.59877,3.03135c-2.82264,3.29765 -2.69801,3.13896 -2.73954,3.49669c-0.08539,0.72624 0.41774,1.3126 1.0409,1.21308c0.30926,-0.04844 0.11078,0.16674 3.65118,-3.95395l3.25422,-3.78717l-3.18497,-3.71451c-1.75175,-2.04153 -3.23347,-3.76027 -3.29348,-3.81676c-0.19618,-0.18558 -0.51234,-0.27433 -0.75699,-0.21516l0,0l0,0l0,0l0,0z" fill="#bbbbbb" />
            <path d="m12.63517,17.59884c-0.15109,0.0636 -0.25187,0.13455 -0.3526,0.252c-0.26717,0.31068 -0.32851,0.74611 -0.15768,1.11799c0.08104,0.17856 0.25406,0.36448 0.41174,0.44767l0.13359,0.06851l4.64297,0l4.64294,0l0.14237,-0.07587c0.22997,-0.12476 0.38545,-0.32779 0.46429,-0.60425c0.12483,-0.45011 -0.07228,-0.93939 -0.46429,-1.15221l-0.14237,-0.07587l-4.62104,-0.00488c-3.76914,-0.00244 -4.63639,0.00244 -4.69992,0.0269z" fill="#bbbbbb" />
        </g>
        <g id="open">
            <path d="m2.16914,28.01818c-0.16159,0.04036 -0.33005,0.15059 -0.45931,0.29855c-0.27693,0.32543 -0.34388,0.76387 -0.18463,1.21309c0.04616,0.12638 0.33698,0.47607 2.66108,3.18731l2.61031,3.04747l-2.59877,3.0314c-2.82263,3.2976 -2.69801,3.1389 -2.73954,3.4967c-0.08539,0.7262 0.41774,1.3126 1.0409,1.213c0.30926,-0.0484 0.11078,0.1668 3.65118,-3.9539l3.25421,-3.7872l-3.18496,-3.7145c-1.75175,-2.04153 -3.23348,-3.76027 -3.29349,-3.81676c-0.19617,-0.18557 -0.51234,-0.27433 -0.75698,-0.21516l0,0l0,0l0,0l0,0z" fill="#78b2f2"/>
            <path d="m12.0756,41.5988c-0.1511,0.0636 -0.2519,0.1346 -0.3526,0.252c-0.2672,0.3107 -0.3285,0.7462 -0.1577,1.118c0.081,0.1786 0.254,0.3645 0.4117,0.4477l0.1336,0.0685l4.643,0l4.64291,0l0.1424,-0.0759c0.23,-0.1247 0.3855,-0.3277 0.4643,-0.6042c0.12479,-0.4501 -0.0723,-0.9394 -0.4643,-1.1522l-0.1424,-0.0759l-4.621,-0.0049c-3.7692,-0.0024 -4.6364,0.0025 -4.6999,0.0269z" fill="#78b2f2" />
        </g>
    </g>

</svg>
